<?xml version="1.0"?>
<svg xmlns="http://www.w3.org/2000/svg" viewBox="0 0 64 64" width="512" height="512"><path d="m58 44v-28a4 4 0 0 0 -4-4h-44a4 4 0 0 0 -4 4v28a4 4 0 0 0 4 4h44a4 4 0 0 0 4-4zm-48-28h44v28h-44z" fill="#d9d9d9"/><path d="m10 16v28h44v-28z" fill="#41bdf7"/><path d="m10 48h-7c0 3.314 2.686 4 6 4h46c3.314 0 6-.686 6-4z" fill="#d9d9d9"/><path d="m40 28h-16a1 1 0 0 0 -1 1v10a1 1 0 0 0 1 1h16a1 1 0 0 0 1-1v-10a1 1 0 0 0 -1-1z" fill="#f7ba41"/><path d="m55 44v-28a1 1 0 0 0 -1-1h-44a1 1 0 0 0 -1 1v28a1 1 0 0 0 1 1h44a1 1 0 0 0 1-1zm-2-1h-42v-26h42z"/><path d="m61 47h-3.026a4.948 4.948 0 0 0 1.026-3v-28a5.006 5.006 0 0 0 -5-5h-44a5.006 5.006 0 0 0 -5 5v28a4.948 4.948 0 0 0 1.026 3h-3.026a1 1 0 0 0 -1 1c0 5 5.269 5 7 5h46c1.731 0 7 0 7-5a1 1 0 0 0 -1-1zm-54-3v-28a3 3 0 0 1 3-3h44a3 3 0 0 1 3 3v28a3 3 0 0 1 -3 3h-44a3 3 0 0 1 -3-3zm48 7h-46c-3.323 0-4.53-.769-4.879-2h55.758c-.349 1.231-1.556 2-4.879 2z"/><path d="m24 41h16a2 2 0 0 0 2-2v-10a2 2 0 0 0 -2-2h-2v-3a5.006 5.006 0 0 0 -5-5h-2a5.006 5.006 0 0 0 -5 5v3h-2a2 2 0 0 0 -2 2v10a2 2 0 0 0 2 2zm4-17a3 3 0 0 1 3-3h2a3 3 0 0 1 3 3v3h-8zm-4 5h16v10h-16z"/><path d="m31 31h2v6h-2z"/></svg>
