<svg xmlns="http://www.w3.org/2000/svg" version="1.0" width="1265.000000pt" height="528.000000pt" viewBox="0 0 1265.000000 528.000000" preserveAspectRatio="xMidYMid meet">
<metadata>
Created by potrace 1.15, written by Peter Selinger 2001-2017
</metadata>
<g transform="translate(0.000000,528.000000) scale(0.100000,-0.100000)" fill="#468C00" stroke="none">
<path d="M3420 2640 l0 -2560 720 0 720 0 0 170 0 170 -540 0 -540 0 0 2220 0 2220 540 0 540 0 0 170 0 170 -720 0 -720 0 0 -2560z" fill="#272727"/>
<path d="M7940 5030 l0 -170 545 0 545 0 0 -2220 0 -2220 -545 0 -545 0 0 -170 0 -170 725 0 725 0 0 2560 0 2560 -725 0 -725 0 0 -170z" fill="#272727"/>
<path d="M1470 3790 l0 -150 925 0 925 0 0 150 0 150 -925 0 -925 0 0 -150z"/>
<path d="M9510 3790 l0 -150 925 0 925 0 0 150 0 150 -925 0 -925 0 0 -150z"/>
<path d="M0 2670 l0 -150 1660 0 1660 0 0 150 0 150 -1660 0 -1660 0 0 -150z"/>
<path d="M9510 2670 l0 -150 1570 0 1570 0 0 150 0 150 -1570 0 -1570 0 0 -150z"/>
<path d="M1470 1630 l0 -150 925 0 925 0 0 150 0 150 -925 0 -925 0 0 -150z"/>
<path d="M9510 1630 l0 -150 925 0 925 0 0 150 0 150 -925 0 -925 0 0 -150z"/>
</g>
</svg>