<svg height="512pt" viewBox="0 0 512 512" width="512pt" xmlns="http://www.w3.org/2000/svg"><path d="m185 370c-102.011719 0-185-82.988281-185-185s82.988281-185 185-185 185 82.988281 185 185-82.988281 185-185 185zm0 0" fill="#fff8d5"/><path d="m185 0v370c102.011719 0 185-82.988281 185-185s-82.988281-185-185-185zm0 0" fill="#ffe3ba"/><path d="m185 370c-102.011719 0-185-82.988281-185-185s82.988281-185 185-185 185 82.988281 185 185-82.988281 185-185 185zm0-340c-85.46875 0-155 69.53125-155 155s69.53125 155 155 155 155-69.53125 155-155-69.53125-155-155-155zm0 0" fill="#4bbaed"/><path d="m185.171875 206.195312-91.683594-91.683593 21.210938-21.210938 70.472656 70.46875 41.300781-41.296875 21.210938 21.210938zm0 0" fill="#388cb3"/><path d="m340 185c0 85.46875-69.53125 155-155 155v30c102.011719 0 185-82.988281 185-185s-82.988281-185-185-185v30c85.46875 0 155 69.53125 155 155zm0 0" fill="#388cb3"/><path d="m185.171875 163.769531-.171875-.171875v42.425782l.171875.171874 62.511719-62.511718-21.210938-21.210938zm0 0" fill="#265d77"/><path d="m447 512h-235v-210h300v145c0 35.839844-29.160156 65-65 65zm0 0" fill="#ffe565"/><path d="m362 512h85c35.839844 0 65-29.160156 65-65v-145h-150zm0 0" fill="#ffd400"/><path d="m512 332h-300v-90h300zm0 0" fill="#ffab2d"/><path d="m447 512h-5v-70h70v5c0 35.839844-29.160156 65-65 65zm0 0" fill="#ffb234"/><path d="m267 212h30v45h-30zm0 0" fill="#ff7b01"/><path d="m362 242h150v90h-150zm0 0" fill="#f90"/><path d="m427 212h30v45h-30zm0 0" fill="#ff4f18"/></svg>