<?xml version="1.0" standalone="no"?><!DOCTYPE svg PUBLIC "-//W3C//DTD SVG 1.1//EN" "http://www.w3.org/Graphics/SVG/1.1/DTD/svg11.dtd"><svg class="icon" height="512" viewBox="0 0 1024 1024" version="1.1" xmlns="http://www.w3.org/2000/svg"><path d="M744.064 535.274667c-34.773333 69.184-112.170667 69.504-112.170667 69.504H397.12c-34.133333 0-126.784-33.877333-110.165333-124.096 15.488-83.925333 112.426667-76.48 112.426666-76.48s-13.909333-99.584 95.36-114.304c109.226667-14.72 136.384 88.597333 136.384 88.597333 102.976-9.621333 147.882667 87.637333 112.938667 156.8zM517.333333 85.333333h-3.306666L128 214.144l66.261333 381.013333s0 50.709333 14.506667 79.68c72.768 145.557333 245.12 216.213333 300.501333 242.389334 0 0 5.248 2.581333 5.973334 2.218666 1.024 0.490667 6.016-2.218667 6.016-2.218666 55.210667-26.176 227.562667-96.832 300.48-242.389334 14.4-28.970667 15.893333-79.658667 15.893333-79.658666l66.410667-381.034667L517.312 85.333333z" fill="#00D8BF" /></svg>