<?xml version="1.0" standalone="no"?><!DOCTYPE svg PUBLIC "-//W3C//DTD SVG 1.1//EN" "http://www.w3.org/Graphics/SVG/1.1/DTD/svg11.dtd"><svg class="icon" height="512" viewBox="0 0 1025 1024" version="1.1" xmlns="http://www.w3.org/2000/svg"><path d="M512.020146 1024C229.679795 1024 0 794.320205 0 512S229.679795 0 512.020146 0s512.020146 229.679795 512.020146 512S794.34035 1024 512.020146 1024zM512.020146 30.218375C246.360338 30.218375 30.218375 246.360338 30.218375 512S246.360338 993.781625 512.020146 993.781625s481.801771-216.141963 481.801771-481.781625S777.679953 30.218375 512.020146 30.218375zM507.426953 361.814676c-31.870313 0-63.72048 0.040291-95.570647-0.020146-21.434901-0.040291-29.049931-7.594885-29.271533-29.231241-0.080582-8.62231 0.040291-17.28491 0.846114-25.887075 2.719654-28.767893 16.438796-50.666142 43.957663-60.658351 51.995751-18.896557 104.757033-18.896557 156.994531-0.906551 29.795318 10.274247 44.541885 33.119339 46.29455 64.002518 2.457761 42.970529 5.036396 55.722683-48.772457 52.418808-12.369388-0.765532-24.839504-0.120873-37.249184-0.120873-12.429825 0-24.839504 0-37.249184 0C507.426953 361.391619 507.426953 361.673657 507.426953 361.814676zM803.990085 488.288648c21.656502 4.089553 46.939209 6.849498 70.932599 13.880307 32.958174 9.649734 47.644305 34.952587 49.356679 68.394255 0.322329 6.446587 0.201456 12.95361 0.120873 19.420342-0.261893 22.8048-11.200944 31.366673-33.703561 30.439976-32.696282-1.309463-65.453-0.624513-98.189573-0.805823-32.253079-0.18131-64.546449 0.543931-96.6988-1.349754-6.728625-0.402912-16.720834-9.428133-18.695101-16.358214-13.81987-48.147944 10.515994-90.856581 59.207869-103.427425C757.010584 493.143734 778.727523 491.955145 803.990085 488.288648zM212.012119 486.918749c28.385127 5.660909 54.695259 8.80362 79.575054 16.499233 26.77348 8.279835 42.688491 28.284399 45.06567 57.354476 0.402912 4.83494 1.067716 9.649734 1.208735 14.484674 1.128153 36.947-0.523785 45.42829-42.386307 44.159119-58.482628-1.772811-117.045839-0.342475-175.568759-0.241747-23.248003 0.020146-30.117647-6.426441-30.097501-29.432697 0-10.757741 0.36262-21.57592 1.672083-32.253079 3.041983-24.497029 15.975448-43.796498 38.961558-51.45182C157.13555 497.192996 185.379658 492.942278 212.012119 486.918749zM506.077199 907.437655c-31.306236 0-62.612473 0-93.938855 0-21.555774-0.020146-29.130513-7.413575-29.251387-29.090222-0.040291-9.690026-0.080582-19.480779 0.86626-29.110368 2.498052-24.960378 14.142199-45.790911 37.752823-54.151328 23.48975-8.279835 48.71202-13.497541 73.551525-15.572536 31.648711-2.639071 63.599607-0.987134 93.576235 12.913319 26.007948 12.067204 40.391895 31.850167 41.922959 60.295731 2.739799 50.867598 1.168444 56.870982-50.001338 54.614676-24.779067-1.087861-49.658863-0.18131-74.478222-0.18131L506.077199 907.437655zM861.203541 413.125477c0.100728 35.335353-25.584891 61.746213-60.477041 62.249852-34.811568 0.483494-62.632619-27.27712-62.572182-62.451308 0.060437-34.448947 27.115955-61.1217 61.967814-61.061263C835.376903 351.903049 861.102813 377.729687 861.203541 413.125477zM505.372103 217.471572c-34.046036-0.805823-61.202282-29.150659-60.43675-63.095967 0.765532-33.703561 29.331969-61.423884 62.914657-61.020972 34.2072 0.423057 62.088688 29.714735 61.182137 64.284556C568.145741 191.383042 539.518867 218.297541 505.372103 217.471572zM152.824395 413.165768c0.080582-35.335353 26.007948-61.423884 61.000826-61.383592 34.912296 0.040291 61.685776 26.431005 61.967814 61.081409 0.282038 35.174188-27.45843 62.894511-62.471454 62.471454C178.469723 474.891836 152.743813 448.440685 152.824395 413.165768zM507.447098 762.631202c-35.093606 0.36262-61.947669-25.90722-62.229707-60.859807-0.282038-35.597246 25.685619-61.020972 62.995239-61.705922 33.461814-0.604367 60.416604 26.431005 60.577769 60.779225C568.97171 735.817431 542.701869 762.308873 507.447098 762.631202zM581.300807 759.62951c37.913988-37.450639 73.712689-74.699823 111.989298-109.14877 8.320126-7.494157 25.605036-5.01625 38.739957-7.131536 0.644659 1.571355 1.289317 3.142711 1.933976 4.714066-2.820382 3.384458-5.419162 6.990517-8.501436 10.092937-32.29337 32.394098-64.647177 64.727759-96.960693 97.081566C609.444187 774.355932 609.464332 774.355932 581.300807 759.62951zM430.67228 759.951839c-24.920087 15.572536-24.899941 15.572536-43.413732-2.840527-35.879284-35.657682-71.778713-71.295219-110.095613-109.390517 21.918395-3.223293 38.478064-5.983238 54.090891 10.878615 29.654299 32.031477 61.403738 62.108833 92.246626 93.052449C426.01865 754.210348 428.214519 757.091167 430.67228 759.951839zM693.67287 486.737439c-8.340271 7.61503-14.565257 13.316231-20.065001 18.332481-38.820539-39.304033-76.996419-77.983553-115.393901-116.884674 18.010151-1.470628 35.113752-3.384458 50.867598 14.162345C635.250679 431.518395 664.48192 457.929254 693.67287 486.737439zM459.198426 388.648593c-40.150148 40.089711-78.185009 78.084281-117.348023 117.186858-6.083966-5.318434-12.752154-11.140508-23.147275-20.226166 14.565257-13.215503 28.606728-25.464017 42.043832-38.316899 14.786858-14.142199 30.460122-27.720323 43.111548-43.635333C418.806532 384.861224 437.038284 386.029668 459.198426 388.648593z" /></svg>