<?xml version="1.0"?>
<svg xmlns="http://www.w3.org/2000/svg" height="512px" viewBox="0 -76 512 512" width="512px" class=""><g><path d="m484.898438 263.75v-263.75h-457.796876v263.75h-27.101562v53.761719c0 23.144531 18.832031 41.976562 41.976562 41.976562h428.046876c23.144531 0 41.976562-18.832031 41.976562-41.976562v-53.761719zm-427.796876-233.75h397.796876v233.75h-172.898438v10.25h-52v-10.25h-172.898438zm424.898438 287.511719c0 6.601562-5.371094 11.976562-11.976562 11.976562h-428.046876c-6.605468 0-11.976562-5.375-11.976562-11.976562v-23.761719h170v10.25h112v-10.25h170zm0 0" data-original="#000000" class="active-path" data-old_color="#00EDFF" fill="#FDFDFD"/><path d="m189.441406 71.507812h133.117188v30h-133.117188zm0 0" data-original="#000000" class="active-path" data-old_color="#00EDFF" fill="#FDFDFD"/><path d="m134.289062 132.875h243.425782v30h-243.425782zm0 0" data-original="#000000" class="active-path" data-old_color="#00EDFF" fill="#FDFDFD"/><path d="m134.289062 194.242188h243.425782v30h-243.425782zm0 0" data-original="#000000" class="active-path" data-old_color="#00EDFF" fill="#FDFDFD"/></g> </svg>
