<?xml version="1.0" standalone="no"?><!DOCTYPE svg PUBLIC "-//W3C//DTD SVG 1.1//EN" "http://www.w3.org/Graphics/SVG/1.1/DTD/svg11.dtd"><svg class="icon" height="512" viewBox="0 0 1024 1024" version="1.1" xmlns="http://www.w3.org/2000/svg"><path d="M196.5 398.9c46.3-129.8 170.1-222.8 315.8-222.8 63.6 0 122.9 18 173.5 48.8l-61.7 107.9 335.2 169.3c-5.2-242.7-203.1-437.9-447-437.9-194.7 0-359.9 124.5-421.4 298 15.6 81.9 89.7 64.1 105.6 36.7zM825.2 632.2c-48.4 125.9-170.1 215.2-313 215.2-65.3 0-126.1-19-177.7-51.3L389 709 65.2 522.9c6 242 203.6 436.5 447 436.5 195.8 0 361.8-125.9 422.5-301.1 18.5-53.3-70.7-126.8-109.5-26.1z" fill="#538AFB" /></svg>